<?xml version="1.0" encoding="utf-8"?>
<!-- Generator: Adobe Illustrator 25.4.1, SVG Export Plug-In . SVG Version: 6.00 Build 0)  -->
<svg version="1.1" id="Layer_1" xmlns="http://www.w3.org/2000/svg" xmlns:xlink="http://www.w3.org/1999/xlink" x="0px" y="0px"
	 viewBox="0 0 800 800" style="enable-background:new 0 0 800 800;" xml:space="preserve">
<path d="M136.1,300c-0.7-8.2-1.1-16.6-1.1-25C135,123.1,253.7,0,400,0s265,123.1,265,275c0,8.4-0.4,16.8-1.1,25h1.1
	c0,150.3-265,500-265,500S135,451.1,135,300H136.1z M400,350c56.9,1.6,104.3-43.1,106-100c-1.7-56.9-49.1-101.6-106-100
	c-56.9-1.6-104.3,43.1-106,100C295.7,306.9,343.1,351.6,400,350z"/>
</svg>
